<svg xmlns="http://www.w3.org/2000/svg" width="115" height="152.794" viewBox="0 0 115 152.794">
  <g id="logo" transform="translate(0 -0.206)">
    <g id="Group">
      <g id="fish" transform="translate(4)">
        <path id="Path" d="M6.875,20.244c0-.386-6.728-6.6-6.676-7.085C.622,9.23,2.954,7.67,4.565,7.362c1.788-2.95,4.324-2.17,9.372-5.089C11.369,4.849,8.352,6.009,4.565,7.362A5.806,5.806,0,0,0,.906,12.386a.73.73,0,0,1-.706.773c-.449,0,0-.386,0-.773-.064-2,.77-5.411,3.916-6.506C8.288,4.463,11.176,3.3,13.744.276A.737.737,0,0,1,14.835.212c.064.064.193.193.193.258,1.6,3.8,1.476,12.57-1.284,16.435-1.541,2.126-3.4,2.6-6.1,3.051-.128.129.064,1.063,0,1.063A.743.743,0,0,1,6.875,20.244Z" transform="translate(22.785 0.576)" fill="#fae9d5"/>
        <path id="Path-2" data-name="Path" d="M8.218,21.017a.743.743,0,0,1-.77-.773.764.764,0,0,1,.642-.773,7.263,7.263,0,0,0,5.2-3.221c2.054-2.834,2.311-9.92,1.22-13.978C11.941,4.849,8.924,6.009,5.137,7.362a5.806,5.806,0,0,0-3.659,5.024.73.73,0,0,1-.706.773A.73.73,0,0,1,0,12.45,7.445,7.445,0,0,1,4.688,5.88C8.86,4.463,11.749,3.3,14.316.276A.737.737,0,0,1,15.407.212c.064.064.193.193.193.258,1.6,3.8,1.8,12.754-.963,16.619a9.111,9.111,0,0,1-6.226,3.8c-.128.129-.128.129-.193.129Z" transform="translate(22.464 0.206)" fill="#5a609f"/>
        <path id="Path_Copy" data-name="Path Copy" d="M39.807,75.24a31.653,31.653,0,0,1-3.53-.966c-.385-.129-2.084-.81-1.955-1.26.128-.386-8.058-8.08-7.609-7.951.25.07-4.577-3.542-4.878-13.863-.385-13.191.658-33.829,3.659-36.766,1.124-1.1.3-10.822,1.9-8.775C31.265,10.615,37.943,32.188,38.2,32.47c9.266,10.073,6.972,11.539,29.212,11.539,10.583,0,1.732.213,13.281.957l-1.22-.064c-6.162-.258-17.687.709-24.877-.193l-4.806-1.353c-8.216-1.031-6.841-1.868-11.591-9.984-2.439-4.251-3.787-8.889-5.135-13.462-.578-2.126-9.372.364-10.142-1.7-2.7-7.73,0,0-1.669-3.778-.408-.923-6.809-.923-9.179-.55C1.914,12.953,4.888,9.814,2.321,8.848c.193,1.031-.193-3.046,0-2.273,1.091,5.024,6.226,7.6,13.03,6.506a3.745,3.745,0,0,1,.834-.129,5.857,5.857,0,0,1,3.916.129c4.943,2.448,3.916,10.564,3.209,16.554a38.982,38.982,0,0,0-.385,3.994c-.064,1.482-.128,2.963-.193,4.509-.385,9.082-.77,18.551,3.98,26.152a21.8,21.8,0,0,0,5.905,5.99c.963.709,1.926,1.353,2.889,2a.75.75,0,0,1-.77,1.288c-1.027-.644-1.99-1.353-2.953-2.061a23.134,23.134,0,0,1-6.291-6.441c-5.007-8.052-4.622-17.714-4.237-27.054.064-1.482.128-3.027.193-4.445a39.4,39.4,0,0,1,.385-4.122c.706-5.475,1.6-13.076-2.311-15.008a5.41,5.41,0,0,0-3.06-.744c-.321.064-.642.129-.9.193C7.862,15.107,2.192,12.824.908,6.9.587,5.352.01,2,.01,1.873a.788.788,0,0,1,.642-.9.78.78,0,0,1,.77.322c1.412,2,6.547.709,10.655-.258A25.729,25.729,0,0,1,17.983.005c6.8.322,10.639,4.7,13.528,12.947.77,2.126,1.592,4.378,2.233,6.5,1.284,4.445,2.71,9.468,5.021,13.526,4.365,7.472,10.029,7.6,18.052,8.634l1.027.062c7.125.9,15.6,1.355,21.76,1.612l1.22.064c6.868.322,20.99.451,21.118.451.449,0,0,.709,0,1.159l-.521,2.082a114.5,114.5,0,0,1-4.678,14.291c-3.53,7.923-9.6,13.543-18.523,17.022a50.3,50.3,0,0,1-17.9,3.275C57.049,81.635,41.186,77.071,39.807,75.24Z" transform="translate(0.529 11.226)" fill="#fae9d5"/>
        <path id="Path-3" data-name="Path" d="M62.338,82.261a44.858,44.858,0,0,1-9.757-1.1,31.652,31.652,0,0,1-3.53-.966.774.774,0,0,1,.449-1.481c1.155.322,2.311.644,3.466.9,15.405,3.478,35.818-1.8,43.392-18.551,1.926-4.38,3.98-12.883,4.622-15.652-3.274-.064-14.443-.193-20.284-.451l-1.22-.064c-6.162-.258-14.7-.644-21.889-1.546l-1.027-.129C48.344,42.2,42.952,41.488,38.2,33.372c-2.439-4.251-3.787-8.889-5.135-13.462-.578-2.126-1.22-4.316-1.99-6.377C28.381,5.8,24.017,1.873,17.854,1.551a26.062,26.062,0,0,0-5.52.966c-3.787.9-8.024,1.932-10.591.966.193,1.031.385,2.319.578,3.092,1.091,5.024,6.226,7.6,13.03,6.506a3.745,3.745,0,0,1,.834-.129,5.857,5.857,0,0,1,3.916.129c4.943,2.448,3.916,10.564,3.209,16.554a38.982,38.982,0,0,0-.385,3.994c-.064,1.482-.128,2.963-.193,4.509-.385,9.082-.77,18.551,3.98,26.152a21.8,21.8,0,0,0,5.905,5.99c.963.709,1.926,1.353,2.889,2a.75.75,0,0,1-.77,1.288c-1.027-.644-1.99-1.353-2.953-2.061a23.134,23.134,0,0,1-6.291-6.441c-5.007-8.052-4.622-17.714-4.237-27.054.064-1.482.128-3.027.193-4.445a39.4,39.4,0,0,1,.385-4.122c.706-5.475,1.6-13.076-2.311-15.008a5.1,5.1,0,0,0-2.953,0c-.321.064-.642.129-.9.193-7.7,1.224-13.48-1.8-14.764-7.73C.587,5.352.01,2,.01,1.873a.788.788,0,0,1,.642-.9.78.78,0,0,1,.77.322c1.412,2,6.547.709,10.655-.258A25.729,25.729,0,0,1,17.983.005c6.8.322,11.747,4.7,14.635,12.947.77,2.126,1.348,4.316,1.99,6.441,1.284,4.445,2.632,9.018,4.943,13.076,4.365,7.472,9.243,8.116,17.267,9.147l1.027.129c7.125.9,15.6,1.288,21.76,1.546l1.22.064c6.868.322,20.99.451,21.118.451a.743.743,0,0,1,.77.773v.129c-.128.451-2.568,11.53-4.943,16.876C94.24,69.507,87.628,75.562,78.706,79.04a42.373,42.373,0,0,1-16.368,3.221Z" transform="translate(0.054 11.04)" fill="#5a609f"/>
        <g id="Clipped" transform="translate(21.824 76.296)">
          <path id="Path-4" data-name="Path" d="M37.551,12.818c-5.392,0-10.527-1.868-15.855-3.865a87.348,87.348,0,0,0-9.307-3.027A44.547,44.547,0,0,0,.77,4.831.743.743,0,0,1,0,4.058a.743.743,0,0,1,.77-.773A47.584,47.584,0,0,1,12.71,4.445a85.2,85.2,0,0,1,9.436,3.092c8.088,2.963,15.726,5.8,24.456,1.675a61.453,61.453,0,0,0,5.713-3.156,54.853,54.853,0,0,1,9.115-4.573C65.73,0,69.26.064,73.048.064c1.284,0,2.568,0,3.98-.064a.743.743,0,0,1,.77.773.822.822,0,0,1-.706.773c-1.412.064-2.76.064-4.044.064-3.787,0-7.125,0-11.1,1.353a45.624,45.624,0,0,0-8.858,4.445c-1.861,1.1-3.787,2.254-5.841,3.221a21.788,21.788,0,0,1-9.693,2.19Z" transform="translate(0.128 0.064)" fill="#5a609f"/>
        </g>
        <g id="Clipped-2" data-name="Clipped" transform="translate(21.824 80.517)">
          <path id="Path-5" data-name="Path" d="M37.551,12.818c-5.392,0-10.527-1.868-15.855-3.865a87.348,87.348,0,0,0-9.307-3.027A44.547,44.547,0,0,0,.77,4.831.743.743,0,0,1,0,4.058a.743.743,0,0,1,.77-.773A47.584,47.584,0,0,1,12.71,4.445a85.2,85.2,0,0,1,9.436,3.092c8.088,2.963,15.726,5.8,24.456,1.675a61.453,61.453,0,0,0,5.713-3.156,54.853,54.853,0,0,1,9.115-4.573C65.73,0,69.26.064,73.048.064c1.284,0,2.568,0,3.98-.064a.743.743,0,0,1,.77.773.822.822,0,0,1-.706.773c-1.412.064-2.76.064-4.044.064-3.787,0-7.125,0-11.1,1.353a45.624,45.624,0,0,0-8.858,4.445c-1.861,1.1-3.787,2.254-5.841,3.221a21.788,21.788,0,0,1-9.693,2.19Z" transform="translate(0.128 0.224)" fill="#5a609f"/>
        </g>
        <path id="Path-6" data-name="Path" d="M29.142,2.426S24.52,9.189,23.878,9.833C18.037,15.695,5.713,16.274,0,10.026.321,10.413,7.125,5,7.9,4.487,13.159.88,16.561-2.405,29.142,2.426Z" transform="translate(24.135 81.665)" fill="#db7e58"/>
        <path id="Shape" d="M12.253,16.027H11.8a18.852,18.852,0,0,1-6.6-1.321A13.3,13.3,0,0,1,.185,11.26a.8.8,0,0,1,.064-1.094.723.723,0,0,1,.514-.194,66,66,0,0,0,5.97-4.315c.366-.283.639-.5.859-.672.277-.219.445-.351.553-.424.16-.1.323-.211.481-.322s.321-.225.481-.322C12.02,1.9,14.771,0,19.345,0A31.27,31.27,0,0,1,30.162,2.435a.765.765,0,0,1,.449.967.227.227,0,0,1-.064.129c-.783,1.179-4.681,6.821-5.328,7.537a15.951,15.951,0,0,1-5.737,3.664A20.539,20.539,0,0,1,12.253,16.027ZM19.377,1.513c-4.063,0-6.552,1.711-9.434,3.693-.162.1-.326.212-.484.323s-.32.224-.479.32a5.479,5.479,0,0,1-.442.342c-.253.186-.568.418-.906.69A65.348,65.348,0,0,1,2.047,11,15.128,15.128,0,0,0,11.8,14.481l.276,0c4.791,0,9.271-1.662,11.984-4.447.319-.32,2.015-2.757,3.654-5.115l.968-1.391A28.145,28.145,0,0,0,19.377,1.513Z" transform="translate(23.372 80.882)" fill="#5a609f"/>
        <path id="Path-7" data-name="Path" d="M4.237,2.126A2.141,2.141,0,0,1,2.118,4.251,2.141,2.141,0,0,1,0,2.126,2.141,2.141,0,0,1,2.118,0,2.141,2.141,0,0,1,4.237,2.126Z" transform="translate(71.956 59.678)" fill="#5a60a1"/>
      </g>
      <text id="MADE_YOUR_DAY" data-name="MADE YOUR DAY" transform="translate(0 135)" fill="#db7e58" font-size="15" font-family="SegoeUI, Segoe UI"><tspan x="0" y="0">MADE YOUR DAY</tspan></text>
      <text id="CUSTOMISE_WITH_LOVE" data-name="CUSTOMISE WITH LOVE" transform="translate(10 151)" fill="#db7e58" font-size="6" font-family="SegoeUI, Segoe UI" letter-spacing="0.214em"><tspan x="0" y="0">CUSTOMISE WITH LOVE</tspan></text>
    </g>
  </g>
</svg>
